REM DIRINDEX 1\6,1\2\7,1\2\8,1\2\9,1\3\10,1\3\11,1\4\12,1\4\13,1\4\14,1\5\15,1\5\16,1\5\17
REM DIRNAME cjc040,folder01,folder02,folder03,folder04,folder05,folder06,folder07,folder08,folder09,folder10,folder11,folder12,folder13,folder14,folder15,folder16
TITLE ""
FILE "P2Q_t2_1033-1050.mp3" MP3
  TRACK 01 AUDIO
    TITLE "7:cjc040_6933"
    INDEX 01 00:00:00
  TRACK 02 AUDIO
    TITLE "0:"
    INDEX 01 00:01:15
  TRACK 03 AUDIO
    TITLE "8:cjc040_6934"
    INDEX 01 00:01:69
  TRACK 04 AUDIO
    TITLE "0:"
    INDEX 01 00:04:31
  TRACK 05 AUDIO
    TITLE "9:cjc040_6935"
    INDEX 01 00:05:07
  TRACK 06 AUDIO
    TITLE "0:"
    INDEX 01 00:06:33
  TRACK 07 AUDIO
    TITLE "7:cjc040_6936"
    INDEX 01 00:08:11
  TRACK 08 AUDIO
    TITLE "0:"
    INDEX 01 00:09:30
  TRACK 09 AUDIO
    TITLE "8:cjc040_6937"
    INDEX 01 00:10:10
  TRACK 10 AUDIO
    TITLE "0:"
    INDEX 01 00:12:34
  TRACK 11 AUDIO
    TITLE "9:cjc040_6938"
    INDEX 01 00:13:12
  TRACK 12 AUDIO
    TITLE "0:"
    INDEX 01 00:14:35
  TRACK 13 AUDIO
    TITLE "7:cjc040_6939"
    INDEX 01 00:16:16
  TRACK 14 AUDIO
    TITLE "0:"
    INDEX 01 00:17:29
  TRACK 15 AUDIO
    TITLE "8:cjc040_6940"
    INDEX 01 00:18:05
  TRACK 16 AUDIO
    TITLE "0:"
    INDEX 01 00:19:24
  TRACK 17 AUDIO
    TITLE "9:cjc040_6941"
    INDEX 01 00:20:02
  TRACK 18 AUDIO
    TITLE "0:"
    INDEX 01 00:21:15
  TRACK 19 AUDIO
    TITLE "7:cjc040_6942"
    INDEX 01 00:22:72
  TRACK 20 AUDIO
    TITLE "0:"
    INDEX 01 00:24:08
  TRACK 21 AUDIO
    TITLE "8:cjc040_6943"
    INDEX 01 00:24:59
  TRACK 22 AUDIO
    TITLE "0:"
    INDEX 01 00:27:45
  TRACK 23 AUDIO
    TITLE "9:cjc040_6944"
    INDEX 01 00:28:19
  TRACK 24 AUDIO
    TITLE "0:"
    INDEX 01 00:29:36
  TRACK 25 AUDIO
    TITLE "7:cjc040_6945"
    INDEX 01 00:31:14
  TRACK 26 AUDIO
    TITLE "0:"
    INDEX 01 00:32:37
  TRACK 27 AUDIO
    TITLE "8:cjc040_6946"
    INDEX 01 00:33:19
  TRACK 28 AUDIO
    TITLE "0:"
    INDEX 01 00:36:13
  TRACK 29 AUDIO
    TITLE "9:cjc040_6947"
    INDEX 01 00:36:68
  TRACK 30 AUDIO
    TITLE "0:"
    INDEX 01 00:38:18
  TRACK 31 AUDIO
    TITLE "7:cjc040_6948"
    INDEX 01 00:40:03
  TRACK 32 AUDIO
    TITLE "0:"
    INDEX 01 00:41:16
  TRACK 33 AUDIO
    TITLE "8:cjc040_6949"
    INDEX 01 00:41:73
  TRACK 34 AUDIO
    TITLE "0:"
    INDEX 01 00:43:21
  TRACK 35 AUDIO
    TITLE "9:cjc040_6950"
    INDEX 01 00:43:64
  TRACK 36 AUDIO
    TITLE "0:"
    INDEX 01 00:45:08
  TRACK 37 AUDIO
    TITLE "7:cjc040_6951"
    INDEX 01 00:46:58
  TRACK 38 AUDIO
    TITLE "0:"
    INDEX 01 00:48:04
  TRACK 39 AUDIO
    TITLE "8:cjc040_6952"
    INDEX 01 00:48:61
  TRACK 40 AUDIO
    TITLE "0:"
    INDEX 01 00:51:18
  TRACK 41 AUDIO
    TITLE "9:cjc040_6953"
    INDEX 01 00:51:67
  TRACK 42 AUDIO
    TITLE "0:"
    INDEX 01 00:53:13
  TRACK 43 AUDIO
    TITLE "7:cjc040_6954"
    INDEX 01 00:54:68
  TRACK 44 AUDIO
    TITLE "0:"
    INDEX 01 00:56:20
  TRACK 45 AUDIO
    TITLE "8:cjc040_6955"
    INDEX 01 00:56:74
  TRACK 46 AUDIO
    TITLE "0:"
    INDEX 01 00:59:08
  TRACK 47 AUDIO
    TITLE "9:cjc040_6956"
    INDEX 01 00:59:57
  TRACK 48 AUDIO
    TITLE "0:"
    INDEX 01 01:01:15
  TRACK 49 AUDIO
    TITLE "7:cjc040_6957"
    INDEX 01 01:02:69
  TRACK 50 AUDIO
    TITLE "0:"
    INDEX 01 01:04:21
  TRACK 51 AUDIO
    TITLE "8:cjc040_6958"
    INDEX 01 01:05:01
  TRACK 52 AUDIO
    TITLE "0:"
    INDEX 01 01:07:55
  TRACK 53 AUDIO
    TITLE "9:cjc040_6959"
    INDEX 01 01:08:31
  TRACK 54 AUDIO
    TITLE "0:"
    INDEX 01 01:09:56
  TRACK 55 AUDIO
    TITLE "7:cjc040_6960"
    INDEX 01 01:11:41
  TRACK 56 AUDIO
    TITLE "0:"
    INDEX 01 01:12:56
  TRACK 57 AUDIO
    TITLE "8:cjc040_6961"
    INDEX 01 01:13:38
  TRACK 58 AUDIO
    TITLE "0:"
    INDEX 01 01:14:57
  TRACK 59 AUDIO
    TITLE "9:cjc040_6962"
    INDEX 01 01:15:39
  TRACK 60 AUDIO
    TITLE "0:"
    INDEX 01 01:16:54
  TRACK 61 AUDIO
    TITLE "7:cjc040_6963"
    INDEX 01 01:18:33
  TRACK 62 AUDIO
    TITLE "0:"
    INDEX 01 01:19:44
  TRACK 63 AUDIO
    TITLE "8:cjc040_6964"
    INDEX 01 01:20:28
  TRACK 64 AUDIO
    TITLE "0:"
    INDEX 01 01:23:09
  TRACK 65 AUDIO
    TITLE "9:cjc040_6965"
    INDEX 01 01:23:63
  TRACK 66 AUDIO
    TITLE "0:"
    INDEX 01 01:25:02
  TRACK 67 AUDIO
    TITLE "7:cjc040_6966"
    INDEX 01 01:26:60
  TRACK 68 AUDIO
    TITLE "0:"
    INDEX 01 01:27:71
  TRACK 69 AUDIO
    TITLE "8:cjc040_6967"
    INDEX 01 01:28:51
  TRACK 70 AUDIO
    TITLE "0:"
    INDEX 01 01:30:71
  TRACK 71 AUDIO
    TITLE "9:cjc040_6968"
    INDEX 01 01:31:49
  TRACK 72 AUDIO
    TITLE "0:"
    INDEX 01 01:32:68
  TRACK 73 AUDIO
    TITLE "7:cjc040_6969"
    INDEX 01 01:34:50
  TRACK 74 AUDIO
    TITLE "0:"
    INDEX 01 01:36:09
  TRACK 75 AUDIO
    TITLE "8:cjc040_6970"
    INDEX 01 01:36:56
  TRACK 76 AUDIO
    TITLE "0:"
    INDEX 01 01:39:21
  TRACK 77 AUDIO
    TITLE "9:cjc040_6971"
    INDEX 01 01:39:74
  TRACK 78 AUDIO
    TITLE "0:"
    INDEX 01 01:41:34
  TRACK 79 AUDIO
    TITLE "7:cjc040_6972"
    INDEX 01 01:43:13
  TRACK 80 AUDIO
    TITLE "0:"
    INDEX 01 01:44:23
  TRACK 81 AUDIO
    TITLE "8:cjc040_6973"
    INDEX 01 01:44:73
  TRACK 82 AUDIO
    TITLE "0:"
    INDEX 01 01:46:25
  TRACK 83 AUDIO
    TITLE "9:cjc040_6974"
    INDEX 01 01:47:03
  TRACK 84 AUDIO
    TITLE "0:"
    INDEX 01 01:48:18
  TRACK 85 AUDIO
    TITLE "7:cjc040_6975"
    INDEX 01 01:50:00
  TRACK 86 AUDIO
    TITLE "0:"
    INDEX 01 01:51:28
  TRACK 87 AUDIO
    TITLE "8:cjc040_6976"
    INDEX 01 01:52:02
  TRACK 88 AUDIO
    TITLE "0:"
    INDEX 01 01:54:29
  TRACK 89 AUDIO
    TITLE "9:cjc040_6977"
    INDEX 01 01:55:07
  TRACK 90 AUDIO
    TITLE "0:"
    INDEX 01 01:56:39
  TRACK 91 AUDIO
    TITLE "7:cjc040_6978"
    INDEX 01 01:58:21
  TRACK 92 AUDIO
    TITLE "0:"
    INDEX 01 01:59:40
  TRACK 93 AUDIO
    TITLE "8:cjc040_6979"
    INDEX 01 02:00:24
  TRACK 94 AUDIO
    TITLE "0:"
    INDEX 01 02:01:31
  TRACK 95 AUDIO
    TITLE "9:cjc040_6980"
    INDEX 01 02:02:07
  TRACK 96 AUDIO
    TITLE "0:"
    INDEX 01 02:03:32
  TRACK 97 AUDIO
    TITLE "7:cjc040_6981"
    INDEX 01 02:05:17
  TRACK 98 AUDIO
    TITLE "0:"
    INDEX 01 02:06:44
  TRACK 99 AUDIO
    TITLE "8:cjc040_6982"
    INDEX 01 02:07:24
  TRACK 100 AUDIO
    TITLE "0:"
    INDEX 01 02:08:39
  TRACK 101 AUDIO
    TITLE "9:cjc040_6983"
    INDEX 01 02:09:15
  TRACK 102 AUDIO
    TITLE "0:"
    INDEX 01 02:10:47
  TRACK 103 AUDIO
    TITLE "7:cjc040_6984"
    INDEX 01 02:12:25
  TRACK 104 AUDIO
    TITLE "0:"
    INDEX 01 02:13:24
  TRACK 105 AUDIO
    TITLE "8:cjc040_6985"
    INDEX 01 02:14:00
  TRACK 106 AUDIO
    TITLE "0:"
    INDEX 01 02:15:07
  TRACK 107 AUDIO
    TITLE "9:cjc040_6986"
    INDEX 01 02:15:58
  TRACK 108 AUDIO
    TITLE "0:"
    INDEX 01 02:16:56
